# xmcd
#
# Track frame offsets:
#	150
#	18472
#	34265
#	51895
#	68122
#	84972
#	101350
#	118285
#	140927
#	161300
#	178200
#	193497
#	209807
#	229812
#	249327
#	261310
#
# Disc length: 3752 seconds
#
# Revision: 1
# Processed by: cddbd v1.5.1PL0 Copyright (c) Steve Scherf et al.
# Submitted via: CDex 1.50Beta5
#
DISCID=f20ea610
DTITLE=プロコル・ハルム - プロコル・ハルム・ベスト・ヒット16
DYEAR=1990
DGENRE=Rock
TTITLE0=青い影
TTITLE1=シャイン・オン・ブライトリー
TTITLE2=ハンバーグ
TTITLE3=クワイト・ライトリー・ソー
TTITLE4=よいの明星
TTITLE5=サラダ・デイズ
TTITLE6=月の光
TTITLE7=バルブルギスの後悔
TTITLE8=ウイスキー・トレイン
TTITLE9=果てしなき欲望
TTITLE10=シー・ワンダード
TTITLE11=ナッシング・ザット・アイ・ディドント・ノウ
TTITLE12=ボーダム
TTITLE13=デッド・マンズ・ドリーム
TTITLE14=征服者
TTITLE15=諸人の道
EXTD=
EXTT0=
EXTT1=
EXTT2=
EXTT3=
EXTT4=
EXTT5=
EXTT6=
EXTT7=
EXTT8=
EXTT9=
EXTT10=
EXTT11=
EXTT12=
EXTT13=
EXTT14=
EXTT15=
PLAYORDER=
